<svg width="128" height="40" viewBox="0 0 128 40" fill="none" xmlns="http://www.w3.org/2000/svg">
<path d="M128 40L116.116 26.256L116.13 26.2413L115.084 25.2585L111.235 27.9428L97.9205 13.6854L90.725 21.4741L85.3284 18.1151L81.8192 15.8269L79.0324 19.0686L78.5016 19.6846L59.5839 0L52.2262 9.59296L46.8886 16.5457L38.027 6.80601L37.5109 7.62743L26.2753 25.4345L20.4364 20.9754L20.2299 21.1808L0 40L16.3078 32.3872L20.5838 22.941L23.459 25.1412L31.5245 32.3432L39.6931 35.9223L31.8341 30.407L31.8931 30.3777L38.4546 9.49028L46.1514 19.0979L58.9499 30.9791L53.7155 25.0385H53.8629L58.3748 19.89L61.6777 8.21415L61.6924 7.87679L60.8372 3.41767L77.9855 21.2835L81.9224 25.4932L83.2052 24.9505L82.7923 18.2178L86.0804 20.374L93.6298 25.8599L107.121 32.3872L96.2838 24.9652L98.7757 22.1342L98.9527 21.6208L98.7462 16.7217L110.572 29.3949L111.987 31.1551L113.196 31.0818L115.393 27.4587L128 40Z" fill="#282828"/>
<path d="M15.0841 11.5439C14.5507 11.5582 14.0234 11.4282 13.5584 11.1678C13.0933 10.9075 12.708 10.5265 12.4435 10.0654C12.179 9.60437 12.0452 9.08057 12.0564 8.54984C12.0676 8.01911 12.2233 7.50135 12.507 7.05173C12.7907 6.60212 13.1917 6.2375 13.6673 5.99674C14.1429 5.75599 14.6752 5.64811 15.2076 5.68462C15.7399 5.72113 16.2523 5.90065 16.6902 6.20405C17.1281 6.50745 17.475 6.92336 17.694 7.40745C17.5191 6.46861 17.0793 5.59864 16.4259 4.8992C15.5998 4.16995 14.5581 3.72708 13.4573 3.63715C12.3566 3.54722 11.2562 3.81508 10.3216 4.40048C6.4879 7.80349 8.15406 12.1159 10.3216 13.2014C11.5657 13.679 12.9375 13.7152 14.2053 13.3036C15.4732 12.8921 16.5595 12.0582 17.2811 10.9425C17.3725 10.7222 17.4512 10.4969 17.517 10.2677C17.2463 10.6611 16.8832 10.9829 16.4593 11.2052C16.0354 11.4276 15.5634 11.5438 15.0841 11.5439V11.5439Z" fill="#F5B004"/>
</svg>
